<svg width="50" height="50" viewBox="0 0 50 50" fill="none" xmlns="http://www.w3.org/2000/svg">
<path d="M28.0629 24.9541L45.3337 7.72944C46.0415 6.90506 45.994 5.67621 45.2244 4.90875C44.4549 4.14129 43.2228 4.09382 42.3962 4.7998L25.1254 22.0244L7.85458 4.77902C7.03766 3.96429 5.71317 3.96429 4.89625 4.77902C4.07933 5.59375 4.07933 6.9147 4.89625 7.72944L22.1879 24.9541L4.89625 42.1787C4.30172 42.6865 4.04275 43.4837 4.22581 44.2427C4.40888 45.0018 5.00308 45.5944 5.76413 45.7769C6.52517 45.9595 7.3246 45.7012 7.83374 45.1083L25.1254 27.8837L42.3962 45.1083C43.2228 45.8143 44.4549 45.7668 45.2244 44.9994C45.994 44.2319 46.0415 43.003 45.3337 42.1787L28.0629 24.9541Z" fill="#A61744"/>
</svg>
